%TF.GenerationSoftware,KiCad,Pcbnew,7.0.7-7.0.7~ubuntu22.04.1*%
%TF.CreationDate,2023-08-24T08:44:54+02:00*%
%TF.ProjectId,esp32-programmer,65737033-322d-4707-926f-6772616d6d65,1*%
%TF.SameCoordinates,Original*%
%TF.FileFunction,Soldermask,Top*%
%TF.FilePolarity,Negative*%
%FSLAX46Y46*%
G04 Gerber Fmt 4.6, Leading zero omitted, Abs format (unit mm)*
G04 Created by KiCad (PCBNEW 7.0.7-7.0.7~ubuntu22.04.1) date 2023-08-24 08:44:54*
%MOMM*%
%LPD*%
G01*
G04 APERTURE LIST*
G04 Aperture macros list*
%AMRoundRect*
0 Rectangle with rounded corners*
0 $1 Rounding radius*
0 $2 $3 $4 $5 $6 $7 $8 $9 X,Y pos of 4 corners*
0 Add a 4 corners polygon primitive as box body*
4,1,4,$2,$3,$4,$5,$6,$7,$8,$9,$2,$3,0*
0 Add four circle primitives for the rounded corners*
1,1,$1+$1,$2,$3*
1,1,$1+$1,$4,$5*
1,1,$1+$1,$6,$7*
1,1,$1+$1,$8,$9*
0 Add four rect primitives between the rounded corners*
20,1,$1+$1,$2,$3,$4,$5,0*
20,1,$1+$1,$4,$5,$6,$7,0*
20,1,$1+$1,$6,$7,$8,$9,0*
20,1,$1+$1,$8,$9,$2,$3,0*%
G04 Aperture macros list end*
%ADD10RoundRect,0.250000X-0.375000X-0.625000X0.375000X-0.625000X0.375000X0.625000X-0.375000X0.625000X0*%
%ADD11RoundRect,0.250000X-0.400000X-0.625000X0.400000X-0.625000X0.400000X0.625000X-0.400000X0.625000X0*%
%ADD12R,0.450000X1.750000*%
%ADD13RoundRect,0.250000X0.400000X0.625000X-0.400000X0.625000X-0.400000X-0.625000X0.400000X-0.625000X0*%
%ADD14RoundRect,0.250000X0.412500X0.650000X-0.412500X0.650000X-0.412500X-0.650000X0.412500X-0.650000X0*%
%ADD15C,1.000000*%
%ADD16R,2.000000X0.500000*%
%ADD17R,1.700000X2.000000*%
%ADD18RoundRect,0.150000X-0.587500X-0.150000X0.587500X-0.150000X0.587500X0.150000X-0.587500X0.150000X0*%
%ADD19RoundRect,0.250000X-0.650000X0.412500X-0.650000X-0.412500X0.650000X-0.412500X0.650000X0.412500X0*%
%ADD20RoundRect,0.250000X0.375000X0.625000X-0.375000X0.625000X-0.375000X-0.625000X0.375000X-0.625000X0*%
%ADD21R,1.700000X1.700000*%
%ADD22O,1.700000X1.700000*%
%ADD23RoundRect,0.250000X0.650000X-0.412500X0.650000X0.412500X-0.650000X0.412500X-0.650000X-0.412500X0*%
%ADD24R,2.000000X1.500000*%
%ADD25R,2.000000X3.800000*%
G04 APERTURE END LIST*
D10*
%TO.C,D4*%
X120901000Y-79311500D03*
X123701000Y-79311500D03*
%TD*%
D11*
%TO.C,R2*%
X115925000Y-70548500D03*
X119025000Y-70548500D03*
%TD*%
D12*
%TO.C,U1*%
X113075000Y-65507500D03*
X112425000Y-65507500D03*
X111775000Y-65507500D03*
X111125000Y-65507500D03*
X110475000Y-65507500D03*
X109825000Y-65507500D03*
X109175000Y-65507500D03*
X108525000Y-65507500D03*
X107875000Y-65507500D03*
X107225000Y-65507500D03*
X106575000Y-65507500D03*
X105925000Y-65507500D03*
X105275000Y-65507500D03*
X104625000Y-65507500D03*
X104625000Y-72707500D03*
X105275000Y-72707500D03*
X105925000Y-72707500D03*
X106575000Y-72707500D03*
X107225000Y-72707500D03*
X107875000Y-72707500D03*
X108525000Y-72707500D03*
X109175000Y-72707500D03*
X109825000Y-72707500D03*
X110475000Y-72707500D03*
X111125000Y-72707500D03*
X111775000Y-72707500D03*
X112425000Y-72707500D03*
X113075000Y-72707500D03*
%TD*%
D10*
%TO.C,D2*%
X110741000Y-79311500D03*
X113541000Y-79311500D03*
%TD*%
D13*
%TO.C,R4*%
X113691000Y-76644500D03*
X110591000Y-76644500D03*
%TD*%
D11*
%TO.C,R3*%
X100431000Y-76644500D03*
X103531000Y-76644500D03*
%TD*%
D14*
%TO.C,C1*%
X111633000Y-62547500D03*
X108508000Y-62547500D03*
%TD*%
D15*
%TO.C,J1*%
X98365000Y-66829500D03*
X98365000Y-71229500D03*
D16*
X101065000Y-67429500D03*
X101065000Y-68229500D03*
X101065000Y-69029500D03*
X101065000Y-69829500D03*
X101065000Y-70629500D03*
D17*
X100965000Y-64579500D03*
X95515000Y-64579500D03*
X100965000Y-73479500D03*
X95515000Y-73479500D03*
%TD*%
D18*
%TO.C,Q2*%
X124998000Y-71757500D03*
X124998000Y-73657500D03*
X126873000Y-72707500D03*
%TD*%
D13*
%TO.C,R1*%
X122200000Y-73723500D03*
X119100000Y-73723500D03*
%TD*%
%TO.C,R5*%
X108611000Y-76644500D03*
X105511000Y-76644500D03*
%TD*%
D19*
%TO.C,C3*%
X116713000Y-63486500D03*
X116713000Y-66611500D03*
%TD*%
D20*
%TO.C,D1*%
X103378000Y-79311500D03*
X100578000Y-79311500D03*
%TD*%
%TO.C,D5*%
X118621000Y-79311500D03*
X115821000Y-79311500D03*
%TD*%
D11*
%TO.C,R7*%
X115671000Y-76644500D03*
X118771000Y-76644500D03*
%TD*%
D21*
%TO.C,J2*%
X131445000Y-58483500D03*
D22*
X131445000Y-61023500D03*
X131445000Y-63563500D03*
X131445000Y-66103500D03*
X131445000Y-68643500D03*
X131445000Y-71183500D03*
X131445000Y-73723500D03*
%TD*%
D13*
%TO.C,R6*%
X123851000Y-76644500D03*
X120751000Y-76644500D03*
%TD*%
D18*
%TO.C,Q1*%
X124998000Y-67693500D03*
X124998000Y-69593500D03*
X126873000Y-68643500D03*
%TD*%
D23*
%TO.C,C2*%
X116713000Y-61062000D03*
X116713000Y-57937000D03*
%TD*%
D24*
%TO.C,U2*%
X120675000Y-59231500D03*
X120675000Y-61531500D03*
D25*
X126975000Y-61531500D03*
D24*
X120675000Y-63831500D03*
%TD*%
D10*
%TO.C,D3*%
X105661000Y-79311500D03*
X108461000Y-79311500D03*
%TD*%
M02*
