%TF.GenerationSoftware,KiCad,Pcbnew,7.0.7-7.0.7~ubuntu22.04.1*%
%TF.CreationDate,2023-08-24T08:44:54+02:00*%
%TF.ProjectId,esp32-programmer,65737033-322d-4707-926f-6772616d6d65,1*%
%TF.SameCoordinates,Original*%
%TF.FileFunction,Copper,L2,Bot*%
%TF.FilePolarity,Positive*%
%FSLAX46Y46*%
G04 Gerber Fmt 4.6, Leading zero omitted, Abs format (unit mm)*
G04 Created by KiCad (PCBNEW 7.0.7-7.0.7~ubuntu22.04.1) date 2023-08-24 08:44:54*
%MOMM*%
%LPD*%
G01*
G04 APERTURE LIST*
%TA.AperFunction,ComponentPad*%
%ADD10R,1.700000X1.700000*%
%TD*%
%TA.AperFunction,ComponentPad*%
%ADD11O,1.700000X1.700000*%
%TD*%
%TA.AperFunction,ViaPad*%
%ADD12C,1.016000*%
%TD*%
%TA.AperFunction,Conductor*%
%ADD13C,0.508000*%
%TD*%
%TA.AperFunction,Conductor*%
%ADD14C,0.254000*%
%TD*%
G04 APERTURE END LIST*
D10*
%TO.P,J2,1,Pin_1*%
%TO.N,+5V*%
X131445000Y-58483500D03*
D11*
%TO.P,J2,2,Pin_2*%
%TO.N,+3V3*%
X131445000Y-61023500D03*
%TO.P,J2,3,Pin_3*%
%TO.N,/TXD*%
X131445000Y-63563500D03*
%TO.P,J2,4,Pin_4*%
%TO.N,/RXD*%
X131445000Y-66103500D03*
%TO.P,J2,5,Pin_5*%
%TO.N,/EN*%
X131445000Y-68643500D03*
%TO.P,J2,6,Pin_6*%
%TO.N,/IO0*%
X131445000Y-71183500D03*
%TO.P,J2,7,Pin_7*%
%TO.N,GND*%
X131445000Y-73723500D03*
%TD*%
D12*
%TO.N,GND*%
X106045000Y-61404500D03*
X127381000Y-70612000D03*
X127635000Y-66992500D03*
X119507000Y-66103500D03*
X115189000Y-74612500D03*
X94361000Y-69024500D03*
X106299000Y-67754500D03*
X112903000Y-58102500D03*
X126238000Y-57658000D03*
X128651000Y-78549500D03*
X118618000Y-62420500D03*
%TO.N,+3V3*%
X109601000Y-81470500D03*
%TO.N,+5V*%
X123190000Y-63563500D03*
%TO.N,/DTR*%
X125857000Y-76644500D03*
X116840000Y-72453500D03*
%TO.N,/PWREN*%
X98044000Y-76644500D03*
X104648000Y-63055500D03*
%TD*%
D13*
%TO.N,+3V3*%
X127889000Y-61023500D02*
X127127000Y-61785500D01*
X109601000Y-74358500D02*
X109601000Y-81470500D01*
X127127000Y-61785500D02*
X127127000Y-63690500D01*
X121285000Y-69532500D02*
X114427000Y-69532500D01*
X123698000Y-67119500D02*
X121285000Y-69532500D01*
X114427000Y-69532500D02*
X109601000Y-74358500D01*
X131445000Y-61023500D02*
X127889000Y-61023500D01*
X127127000Y-63690500D02*
X123698000Y-67119500D01*
%TO.N,+5V*%
X123190000Y-62928500D02*
X127635000Y-58483500D01*
X127635000Y-58483500D02*
X131445000Y-58483500D01*
X123190000Y-63563500D02*
X123190000Y-62928500D01*
D14*
%TO.N,/DTR*%
X116840000Y-72453500D02*
X121031000Y-76644500D01*
X121031000Y-76644500D02*
X125857000Y-76644500D01*
D13*
%TO.N,/PWREN*%
X98044000Y-76644500D02*
X104648000Y-70040500D01*
X104648000Y-70040500D02*
X104648000Y-63055500D01*
%TD*%
%TA.AperFunction,Conductor*%
%TO.N,GND*%
G36*
X133291621Y-56599002D02*
G01*
X133338114Y-56652658D01*
X133349500Y-56705000D01*
X133349500Y-82106000D01*
X133329498Y-82174121D01*
X133275842Y-82220614D01*
X133223500Y-82232000D01*
X110142109Y-82232000D01*
X110073988Y-82211998D01*
X110027495Y-82158342D01*
X110017391Y-82088068D01*
X110046885Y-82023488D01*
X110058555Y-82011688D01*
X110135215Y-81943773D01*
X110232954Y-81802175D01*
X110293965Y-81641301D01*
X110314704Y-81470500D01*
X110293965Y-81299699D01*
X110232954Y-81138825D01*
X110135215Y-80997227D01*
X110097946Y-80964209D01*
X110060221Y-80904065D01*
X110055500Y-80869897D01*
X110055500Y-74598950D01*
X110075502Y-74530829D01*
X110092405Y-74509855D01*
X112148757Y-72453503D01*
X116126296Y-72453503D01*
X116147034Y-72624299D01*
X116170204Y-72685392D01*
X116208046Y-72785175D01*
X116305785Y-72926773D01*
X116434570Y-73040867D01*
X116434571Y-73040867D01*
X116434573Y-73040869D01*
X116515465Y-73083324D01*
X116586917Y-73120825D01*
X116586918Y-73120825D01*
X116586920Y-73120826D01*
X116695155Y-73147503D01*
X116753972Y-73162000D01*
X116753975Y-73162000D01*
X116926027Y-73162000D01*
X116926028Y-73162000D01*
X116984843Y-73147503D01*
X117055769Y-73150620D01*
X117104092Y-73180746D01*
X120787367Y-76864021D01*
X120791072Y-76868064D01*
X120817239Y-76899249D01*
X120817241Y-76899251D01*
X120852488Y-76919600D01*
X120857126Y-76922555D01*
X120890457Y-76945894D01*
X120890459Y-76945894D01*
X120895797Y-76948384D01*
X120911766Y-76954997D01*
X120917258Y-76956996D01*
X120917259Y-76956996D01*
X120917261Y-76956997D01*
X120957359Y-76964066D01*
X120962686Y-76965247D01*
X121002016Y-76975787D01*
X121042558Y-76972239D01*
X121048044Y-76972000D01*
X125156035Y-76972000D01*
X125224156Y-76992002D01*
X125259731Y-77026424D01*
X125322783Y-77117771D01*
X125322784Y-77117772D01*
X125322785Y-77117773D01*
X125451570Y-77231867D01*
X125451571Y-77231867D01*
X125451573Y-77231869D01*
X125532465Y-77274324D01*
X125603917Y-77311825D01*
X125603918Y-77311825D01*
X125603920Y-77311826D01*
X125762394Y-77350885D01*
X125770972Y-77353000D01*
X125770975Y-77353000D01*
X125943025Y-77353000D01*
X125943028Y-77353000D01*
X126110083Y-77311825D01*
X126262430Y-77231867D01*
X126391215Y-77117773D01*
X126488954Y-76976175D01*
X126549965Y-76815301D01*
X126570704Y-76644500D01*
X126570208Y-76640417D01*
X126549965Y-76473700D01*
X126488954Y-76312826D01*
X126488954Y-76312825D01*
X126391215Y-76171227D01*
X126262430Y-76057133D01*
X126262429Y-76057132D01*
X126262426Y-76057130D01*
X126110087Y-75977177D01*
X126110079Y-75977173D01*
X125943031Y-75936000D01*
X125943028Y-75936000D01*
X125770972Y-75936000D01*
X125770968Y-75936000D01*
X125603920Y-75977173D01*
X125603912Y-75977177D01*
X125451573Y-76057130D01*
X125451568Y-76057134D01*
X125322783Y-76171228D01*
X125259731Y-76262576D01*
X125204572Y-76307276D01*
X125156035Y-76317000D01*
X121218844Y-76317000D01*
X121150723Y-76296998D01*
X121129749Y-76280095D01*
X118323154Y-73473500D01*
X130114363Y-73473500D01*
X130828982Y-73473500D01*
X130897103Y-73493502D01*
X130943596Y-73547158D01*
X130953700Y-73617432D01*
X130949878Y-73634998D01*
X130944999Y-73651610D01*
X130944999Y-73795389D01*
X130949878Y-73812002D01*
X130949878Y-73882998D01*
X130911494Y-73942724D01*
X130846914Y-73972218D01*
X130828982Y-73973500D01*
X130114364Y-73973500D01*
X130171568Y-74186988D01*
X130171570Y-74186993D01*
X130271399Y-74401077D01*
X130271400Y-74401079D01*
X130406886Y-74594573D01*
X130406893Y-74594582D01*
X130573917Y-74761606D01*
X130573926Y-74761613D01*
X130767420Y-74897099D01*
X130767422Y-74897100D01*
X130981506Y-74996929D01*
X130981511Y-74996931D01*
X131194999Y-75054135D01*
X131194999Y-74338109D01*
X131215001Y-74269988D01*
X131268657Y-74223495D01*
X131338929Y-74213391D01*
X131409237Y-74223500D01*
X131409241Y-74223500D01*
X131480763Y-74223500D01*
X131508866Y-74219459D01*
X131551068Y-74213392D01*
X131621342Y-74223495D01*
X131674998Y-74269988D01*
X131695000Y-74338109D01*
X131694999Y-75054134D01*
X131908489Y-74996931D01*
X131908493Y-74996929D01*
X132122577Y-74897100D01*
X132122579Y-74897099D01*
X132316073Y-74761613D01*
X132316082Y-74761606D01*
X132483106Y-74594582D01*
X132483113Y-74594573D01*
X132618599Y-74401079D01*
X132618600Y-74401077D01*
X132718429Y-74186993D01*
X132718431Y-74186988D01*
X132775636Y-73973500D01*
X132061018Y-73973500D01*
X131992897Y-73953498D01*
X131946404Y-73899842D01*
X131936300Y-73829568D01*
X131940122Y-73812002D01*
X131945000Y-73795389D01*
X131945000Y-73651611D01*
X131940121Y-73634997D01*
X131940122Y-73564002D01*
X131978506Y-73504276D01*
X132043086Y-73474782D01*
X132061018Y-73473500D01*
X132775636Y-73473500D01*
X132718431Y-73260011D01*
X132718429Y-73260006D01*
X132618599Y-73045921D01*
X132483112Y-72852425D01*
X132316076Y-72685388D01*
X132316073Y-72685386D01*
X132122579Y-72549900D01*
X132122577Y-72549899D01*
X131908493Y-72450070D01*
X131908488Y-72450068D01*
X131793115Y-72419154D01*
X131732492Y-72382202D01*
X131701471Y-72318341D01*
X131709899Y-72247847D01*
X131755102Y-72193100D01*
X131789148Y-72176873D01*
X131848954Y-72158732D01*
X132031450Y-72061185D01*
X132191410Y-71929910D01*
X132322685Y-71769950D01*
X132420232Y-71587454D01*
X132480300Y-71389434D01*
X132483061Y-71361409D01*
X132500583Y-71183503D01*
X132500583Y-71183496D01*
X132480301Y-70977572D01*
X132480300Y-70977570D01*
X132480300Y-70977566D01*
X132420232Y-70779546D01*
X132322685Y-70597050D01*
X132191410Y-70437090D01*
X132031450Y-70305815D01*
X132031448Y-70305814D01*
X132031447Y-70305813D01*
X131848954Y-70208268D01*
X131650927Y-70148198D01*
X131445003Y-70127917D01*
X131444997Y-70127917D01*
X131239072Y-70148198D01*
X131041045Y-70208268D01*
X130858552Y-70305813D01*
X130698590Y-70437090D01*
X130567313Y-70597052D01*
X130469768Y-70779545D01*
X130409698Y-70977572D01*
X130389417Y-71183496D01*
X130389417Y-71183503D01*
X130409698Y-71389427D01*
X130409699Y-71389433D01*
X130409700Y-71389434D01*
X130452454Y-71530376D01*
X130469768Y-71587454D01*
X130557075Y-71750794D01*
X130567315Y-71769950D01*
X130698590Y-71929910D01*
X130858550Y-72061185D01*
X131041046Y-72158732D01*
X131100849Y-72176872D01*
X131160229Y-72215787D01*
X131189145Y-72280628D01*
X131178415Y-72350809D01*
X131131446Y-72404048D01*
X131096885Y-72419154D01*
X130981508Y-72450069D01*
X130981506Y-72450070D01*
X130767421Y-72549900D01*
X130573925Y-72685387D01*
X130573919Y-72685392D01*
X130406892Y-72852419D01*
X130406887Y-72852425D01*
X130271400Y-73045921D01*
X130171570Y-73260006D01*
X130171568Y-73260011D01*
X130114363Y-73473500D01*
X118323154Y-73473500D01*
X117569957Y-72720303D01*
X117535931Y-72657991D01*
X117533971Y-72616021D01*
X117553704Y-72453503D01*
X117553704Y-72453496D01*
X117532965Y-72282700D01*
X117532180Y-72280628D01*
X117471954Y-72121825D01*
X117374215Y-71980227D01*
X117245430Y-71866133D01*
X117245429Y-71866132D01*
X117245426Y-71866130D01*
X117093087Y-71786177D01*
X117093079Y-71786173D01*
X116926031Y-71745000D01*
X116926028Y-71745000D01*
X116753972Y-71745000D01*
X116753968Y-71745000D01*
X116586920Y-71786173D01*
X116586912Y-71786177D01*
X116434573Y-71866130D01*
X116434568Y-71866134D01*
X116305785Y-71980227D01*
X116208045Y-72121826D01*
X116147034Y-72282700D01*
X116126296Y-72453496D01*
X116126296Y-72453503D01*
X112148757Y-72453503D01*
X114578355Y-70023905D01*
X114640667Y-69989879D01*
X114667450Y-69987000D01*
X121255927Y-69987000D01*
X121262981Y-69987395D01*
X121302186Y-69991813D01*
X121361148Y-69980656D01*
X121420479Y-69971714D01*
X121420486Y-69971710D01*
X121428705Y-69969176D01*
X121436803Y-69966342D01*
X121436803Y-69966341D01*
X121436807Y-69966341D01*
X121472787Y-69947324D01*
X121489859Y-69938302D01*
X121507431Y-69929839D01*
X121543921Y-69912267D01*
X121543925Y-69912263D01*
X121551025Y-69907422D01*
X121557931Y-69902324D01*
X121557940Y-69902320D01*
X121600369Y-69859890D01*
X121644356Y-69819077D01*
X121644357Y-69819074D01*
X121650244Y-69811693D01*
X121650917Y-69812229D01*
X121660417Y-69799841D01*
X122816756Y-68643503D01*
X130389417Y-68643503D01*
X130409698Y-68849427D01*
X130469768Y-69047454D01*
X130554036Y-69205108D01*
X130567315Y-69229950D01*
X130698590Y-69389910D01*
X130858550Y-69521185D01*
X131041046Y-69618732D01*
X131239066Y-69678800D01*
X131239070Y-69678800D01*
X131239072Y-69678801D01*
X131444997Y-69699083D01*
X131445000Y-69699083D01*
X131445003Y-69699083D01*
X131650927Y-69678801D01*
X131650928Y-69678800D01*
X131650934Y-69678800D01*
X131848954Y-69618732D01*
X132031450Y-69521185D01*
X132191410Y-69389910D01*
X132322685Y-69229950D01*
X132420232Y-69047454D01*
X132480300Y-68849434D01*
X132500583Y-68643500D01*
X132480300Y-68437566D01*
X132420232Y-68239546D01*
X132322685Y-68057050D01*
X132191410Y-67897090D01*
X132031450Y-67765815D01*
X132031448Y-67765814D01*
X132031447Y-67765813D01*
X131848954Y-67668268D01*
X131650927Y-67608198D01*
X131445003Y-67587917D01*
X131444997Y-67587917D01*
X131239072Y-67608198D01*
X131041045Y-67668268D01*
X130858552Y-67765813D01*
X130698590Y-67897090D01*
X130567313Y-68057052D01*
X130469768Y-68239545D01*
X130409698Y-68437572D01*
X130389417Y-68643496D01*
X130389417Y-68643503D01*
X122816756Y-68643503D01*
X124043465Y-67416795D01*
X124043465Y-67416794D01*
X125356756Y-66103503D01*
X130389417Y-66103503D01*
X130409698Y-66309427D01*
X130409699Y-66309433D01*
X130409700Y-66309434D01*
X130429855Y-66375877D01*
X130469768Y-66507454D01*
X130525450Y-66611628D01*
X130567315Y-66689950D01*
X130698590Y-66849910D01*
X130858550Y-66981185D01*
X131041046Y-67078732D01*
X131239066Y-67138800D01*
X131239070Y-67138800D01*
X131239072Y-67138801D01*
X131444997Y-67159083D01*
X131445000Y-67159083D01*
X131445003Y-67159083D01*
X131650927Y-67138801D01*
X131650928Y-67138800D01*
X131650934Y-67138800D01*
X131848954Y-67078732D01*
X132031450Y-66981185D01*
X132191410Y-66849910D01*
X132322685Y-66689950D01*
X132420232Y-66507454D01*
X132480300Y-66309434D01*
X132491588Y-66194833D01*
X132500583Y-66103503D01*
X132500583Y-66103496D01*
X132480301Y-65897572D01*
X132480300Y-65897570D01*
X132480300Y-65897566D01*
X132420232Y-65699546D01*
X132322685Y-65517050D01*
X132191410Y-65357090D01*
X132031450Y-65225815D01*
X132031448Y-65225814D01*
X132031447Y-65225813D01*
X131848954Y-65128268D01*
X131650927Y-65068198D01*
X131445003Y-65047917D01*
X131444997Y-65047917D01*
X131239072Y-65068198D01*
X131041045Y-65128268D01*
X130858552Y-65225813D01*
X130698590Y-65357090D01*
X130567313Y-65517052D01*
X130469768Y-65699545D01*
X130409698Y-65897572D01*
X130389417Y-66103496D01*
X130389417Y-66103503D01*
X125356756Y-66103503D01*
X127427836Y-64032422D01*
X127433079Y-64027736D01*
X127463936Y-64003131D01*
X127497746Y-63953539D01*
X127533369Y-63905273D01*
X127533371Y-63905264D01*
X127537395Y-63897652D01*
X127541116Y-63889927D01*
X127558808Y-63832571D01*
X127578620Y-63775951D01*
X127578620Y-63775946D01*
X127580220Y-63767492D01*
X127581500Y-63759006D01*
X127581500Y-63698979D01*
X127583104Y-63656102D01*
X127583743Y-63639038D01*
X127583741Y-63639032D01*
X127582686Y-63629655D01*
X127583537Y-63629559D01*
X127581500Y-63614079D01*
X127581500Y-63563503D01*
X130389417Y-63563503D01*
X130409698Y-63769427D01*
X130469768Y-63967454D01*
X130506819Y-64036772D01*
X130567315Y-64149950D01*
X130698590Y-64309910D01*
X130858550Y-64441185D01*
X131041046Y-64538732D01*
X131239066Y-64598800D01*
X131239070Y-64598800D01*
X131239072Y-64598801D01*
X131444997Y-64619083D01*
X131445000Y-64619083D01*
X131445003Y-64619083D01*
X131650927Y-64598801D01*
X131650928Y-64598800D01*
X131650934Y-64598800D01*
X131848954Y-64538732D01*
X132031450Y-64441185D01*
X132191410Y-64309910D01*
X132322685Y-64149950D01*
X132420232Y-63967454D01*
X132480300Y-63769434D01*
X132480492Y-63767492D01*
X132500583Y-63563503D01*
X132500583Y-63563496D01*
X132480301Y-63357572D01*
X132480300Y-63357570D01*
X132480300Y-63357566D01*
X132420232Y-63159546D01*
X132322685Y-62977050D01*
X132191410Y-62817090D01*
X132031450Y-62685815D01*
X132031448Y-62685814D01*
X132031447Y-62685813D01*
X131848954Y-62588268D01*
X131650927Y-62528198D01*
X131445003Y-62507917D01*
X131444997Y-62507917D01*
X131239072Y-62528198D01*
X131041045Y-62588268D01*
X130858552Y-62685813D01*
X130698590Y-62817090D01*
X130567313Y-62977052D01*
X130469768Y-63159545D01*
X130409698Y-63357572D01*
X130389417Y-63563496D01*
X130389417Y-63563503D01*
X127581500Y-63563503D01*
X127581500Y-62025950D01*
X127601502Y-61957829D01*
X127618405Y-61936854D01*
X128040356Y-61514904D01*
X128102668Y-61480879D01*
X128129451Y-61478000D01*
X130421265Y-61478000D01*
X130489386Y-61498002D01*
X130532386Y-61544603D01*
X130567315Y-61609950D01*
X130698590Y-61769910D01*
X130858550Y-61901185D01*
X131041046Y-61998732D01*
X131239066Y-62058800D01*
X131239070Y-62058800D01*
X131239072Y-62058801D01*
X131444997Y-62079083D01*
X131445000Y-62079083D01*
X131445003Y-62079083D01*
X131650927Y-62058801D01*
X131650928Y-62058800D01*
X131650934Y-62058800D01*
X131848954Y-61998732D01*
X132031450Y-61901185D01*
X132191410Y-61769910D01*
X132322685Y-61609950D01*
X132420232Y-61427454D01*
X132480300Y-61229434D01*
X132500583Y-61023500D01*
X132480300Y-60817566D01*
X132420232Y-60619546D01*
X132322685Y-60437050D01*
X132191410Y-60277090D01*
X132031450Y-60145815D01*
X132031448Y-60145814D01*
X132031447Y-60145813D01*
X131848954Y-60048268D01*
X131650927Y-59988198D01*
X131445003Y-59967917D01*
X131444997Y-59967917D01*
X131239072Y-59988198D01*
X131041045Y-60048268D01*
X130858552Y-60145813D01*
X130698590Y-60277090D01*
X130567313Y-60437052D01*
X130532387Y-60502396D01*
X130482635Y-60553044D01*
X130421265Y-60569000D01*
X127918074Y-60569000D01*
X127911017Y-60568604D01*
X127871814Y-60564187D01*
X127871813Y-60564187D01*
X127871811Y-60564187D01*
X127812851Y-60575343D01*
X127753514Y-60584287D01*
X127745338Y-60586809D01*
X127737191Y-60589659D01*
X127684137Y-60617699D01*
X127630079Y-60643732D01*
X127622974Y-60648576D01*
X127616060Y-60653678D01*
X127573629Y-60696109D01*
X127529646Y-60736920D01*
X127523757Y-60744305D01*
X127523089Y-60743772D01*
X127513582Y-60756156D01*
X126826172Y-61443565D01*
X126820902Y-61448275D01*
X126790065Y-61472867D01*
X126756260Y-61522449D01*
X126720631Y-61570726D01*
X126716595Y-61578362D01*
X126712884Y-61586069D01*
X126695196Y-61643415D01*
X126675378Y-61700051D01*
X126673782Y-61708482D01*
X126672499Y-61716994D01*
X126672499Y-61776991D01*
X126670255Y-61836965D01*
X126671313Y-61846345D01*
X126670460Y-61846441D01*
X126672500Y-61861926D01*
X126672500Y-63450048D01*
X126652498Y-63518169D01*
X126635595Y-63539143D01*
X123352534Y-66822205D01*
X121133644Y-69041095D01*
X121071332Y-69075121D01*
X121044549Y-69078000D01*
X114456074Y-69078000D01*
X114449017Y-69077604D01*
X114409814Y-69073187D01*
X114409813Y-69073187D01*
X114409811Y-69073187D01*
X114350851Y-69084343D01*
X114291514Y-69093287D01*
X114283338Y-69095809D01*
X114275191Y-69098659D01*
X114222137Y-69126699D01*
X114168079Y-69152732D01*
X114160974Y-69157576D01*
X114154060Y-69162678D01*
X114111630Y-69205108D01*
X114067646Y-69245920D01*
X114061757Y-69253305D01*
X114061088Y-69252772D01*
X114051581Y-69265157D01*
X109300177Y-74016561D01*
X109294907Y-74021271D01*
X109264065Y-74045867D01*
X109230260Y-74095449D01*
X109194631Y-74143726D01*
X109190595Y-74151362D01*
X109186884Y-74159069D01*
X109169196Y-74216415D01*
X109149378Y-74273051D01*
X109147782Y-74281482D01*
X109146500Y-74289994D01*
X109146500Y-74349992D01*
X109144255Y-74409966D01*
X109145313Y-74419346D01*
X109144460Y-74419442D01*
X109146500Y-74434926D01*
X109146500Y-80869897D01*
X109126498Y-80938018D01*
X109104054Y-80964209D01*
X109066787Y-80997224D01*
X108969045Y-81138826D01*
X108908034Y-81299700D01*
X108887296Y-81470496D01*
X108887296Y-81470503D01*
X108908034Y-81641299D01*
X108969045Y-81802173D01*
X109066785Y-81943773D01*
X109143445Y-82011688D01*
X109181170Y-82071833D01*
X109180390Y-82142825D01*
X109141352Y-82202126D01*
X109076451Y-82230907D01*
X109059891Y-82232000D01*
X92074500Y-82232000D01*
X92006379Y-82211998D01*
X91959886Y-82158342D01*
X91948500Y-82106000D01*
X91948500Y-76644503D01*
X97330296Y-76644503D01*
X97351034Y-76815299D01*
X97410554Y-76972240D01*
X97412046Y-76976175D01*
X97509785Y-77117773D01*
X97638570Y-77231867D01*
X97638571Y-77231867D01*
X97638573Y-77231869D01*
X97719465Y-77274324D01*
X97790917Y-77311825D01*
X97790918Y-77311825D01*
X97790920Y-77311826D01*
X97949394Y-77350885D01*
X97957972Y-77353000D01*
X97957975Y-77353000D01*
X98130025Y-77353000D01*
X98130028Y-77353000D01*
X98297083Y-77311825D01*
X98449430Y-77231867D01*
X98578215Y-77117773D01*
X98675954Y-76976175D01*
X98736965Y-76815301D01*
X98757704Y-76644500D01*
X98757417Y-76642140D01*
X98757704Y-76640417D01*
X98757704Y-76636878D01*
X98758292Y-76636878D01*
X98769059Y-76572108D01*
X98793400Y-76537858D01*
X104948836Y-70382422D01*
X104954079Y-70377736D01*
X104984936Y-70353131D01*
X105018746Y-70303539D01*
X105054369Y-70255273D01*
X105054371Y-70255264D01*
X105058395Y-70247652D01*
X105062116Y-70239927D01*
X105079808Y-70182571D01*
X105099620Y-70125951D01*
X105099620Y-70125946D01*
X105101220Y-70117492D01*
X105102500Y-70109006D01*
X105102500Y-70048982D01*
X105103438Y-70023905D01*
X105104743Y-69989038D01*
X105104741Y-69989032D01*
X105103686Y-69979655D01*
X105104537Y-69979559D01*
X105102500Y-69964079D01*
X105102500Y-63656102D01*
X105122502Y-63587981D01*
X105143478Y-63563503D01*
X122476296Y-63563503D01*
X122497034Y-63734299D01*
X122556056Y-63889927D01*
X122558046Y-63895175D01*
X122655785Y-64036773D01*
X122784570Y-64150867D01*
X122784571Y-64150867D01*
X122784573Y-64150869D01*
X122865465Y-64193324D01*
X122936917Y-64230825D01*
X122936918Y-64230825D01*
X122936920Y-64230826D01*
X123095394Y-64269885D01*
X123103972Y-64272000D01*
X123103975Y-64272000D01*
X123276025Y-64272000D01*
X123276028Y-64272000D01*
X123443083Y-64230825D01*
X123595430Y-64150867D01*
X123724215Y-64036773D01*
X123821954Y-63895175D01*
X123882965Y-63734301D01*
X123899346Y-63599394D01*
X123903704Y-63563503D01*
X123903704Y-63563496D01*
X123882965Y-63392700D01*
X123821954Y-63231826D01*
X123821954Y-63231825D01*
X123762146Y-63145179D01*
X123739911Y-63077757D01*
X123757658Y-63009014D01*
X123776744Y-62984514D01*
X127786354Y-58974905D01*
X127848667Y-58940879D01*
X127875450Y-58938000D01*
X130268500Y-58938000D01*
X130336621Y-58958002D01*
X130383114Y-59011658D01*
X130394500Y-59064000D01*
X130394500Y-59353248D01*
X130406133Y-59411731D01*
X130450448Y-59478052D01*
X130516769Y-59522367D01*
X130575252Y-59534000D01*
X130575253Y-59534000D01*
X132314747Y-59534000D01*
X132314748Y-59534000D01*
X132373231Y-59522367D01*
X132439552Y-59478052D01*
X132483867Y-59411731D01*
X132495500Y-59353248D01*
X132495500Y-57613752D01*
X132483867Y-57555269D01*
X132439552Y-57488948D01*
X132373231Y-57444633D01*
X132373228Y-57444632D01*
X132314750Y-57433000D01*
X132314748Y-57433000D01*
X130575252Y-57433000D01*
X130575249Y-57433000D01*
X130516771Y-57444632D01*
X130516768Y-57444633D01*
X130450448Y-57488948D01*
X130406133Y-57555268D01*
X130406132Y-57555271D01*
X130394500Y-57613749D01*
X130394500Y-57903000D01*
X130374498Y-57971121D01*
X130320842Y-58017614D01*
X130268500Y-58029000D01*
X127664072Y-58029000D01*
X127657015Y-58028604D01*
X127617814Y-58024187D01*
X127617813Y-58024187D01*
X127617812Y-58024187D01*
X127617810Y-58024187D01*
X127570641Y-58033111D01*
X127558849Y-58035343D01*
X127539072Y-58038324D01*
X127499519Y-58044286D01*
X127491271Y-58046830D01*
X127483197Y-58049656D01*
X127430135Y-58077700D01*
X127376082Y-58103731D01*
X127368967Y-58108582D01*
X127362059Y-58113679D01*
X127319630Y-58156108D01*
X127275646Y-58196920D01*
X127269757Y-58204305D01*
X127269088Y-58203772D01*
X127259581Y-58216157D01*
X122889177Y-62586561D01*
X122883907Y-62591271D01*
X122853065Y-62615867D01*
X122819260Y-62665449D01*
X122783631Y-62713726D01*
X122779595Y-62721362D01*
X122775884Y-62729069D01*
X122758196Y-62786415D01*
X122738378Y-62843051D01*
X122736782Y-62851482D01*
X122735500Y-62859994D01*
X122735500Y-62919992D01*
X122733660Y-62969160D01*
X122711124Y-63036485D01*
X122691303Y-63058759D01*
X122655787Y-63090224D01*
X122558045Y-63231826D01*
X122497034Y-63392700D01*
X122476296Y-63563496D01*
X122476296Y-63563503D01*
X105143478Y-63563503D01*
X105144947Y-63561789D01*
X105182215Y-63528773D01*
X105279954Y-63387175D01*
X105340965Y-63226301D01*
X105350815Y-63145182D01*
X105361704Y-63055503D01*
X105361704Y-63055496D01*
X105340965Y-62884700D01*
X105331596Y-62859994D01*
X105279954Y-62723825D01*
X105182215Y-62582227D01*
X105053430Y-62468133D01*
X105053429Y-62468132D01*
X105053426Y-62468130D01*
X104901087Y-62388177D01*
X104901079Y-62388173D01*
X104734031Y-62347000D01*
X104734028Y-62347000D01*
X104561972Y-62347000D01*
X104561968Y-62347000D01*
X104394920Y-62388173D01*
X104394912Y-62388177D01*
X104242573Y-62468130D01*
X104242568Y-62468134D01*
X104113785Y-62582227D01*
X104016045Y-62723826D01*
X103955034Y-62884700D01*
X103934296Y-63055496D01*
X103934296Y-63055503D01*
X103955034Y-63226299D01*
X103955035Y-63226301D01*
X104016046Y-63387175D01*
X104113785Y-63528773D01*
X104113786Y-63528774D01*
X104113787Y-63528775D01*
X104151053Y-63561790D01*
X104188778Y-63621934D01*
X104193499Y-63656102D01*
X104193499Y-69800048D01*
X104173497Y-69868169D01*
X104156594Y-69889143D01*
X98146644Y-75899095D01*
X98084332Y-75933121D01*
X98057549Y-75936000D01*
X97957968Y-75936000D01*
X97790920Y-75977173D01*
X97790912Y-75977177D01*
X97638573Y-76057130D01*
X97638568Y-76057134D01*
X97509785Y-76171227D01*
X97412045Y-76312826D01*
X97351034Y-76473700D01*
X97330296Y-76644496D01*
X97330296Y-76644503D01*
X91948500Y-76644503D01*
X91948500Y-71273668D01*
X97606649Y-71273668D01*
X97637278Y-71447370D01*
X97637278Y-71447371D01*
X97707134Y-71609315D01*
X97707136Y-71609319D01*
X97812460Y-71750793D01*
X97947571Y-71864166D01*
X97947573Y-71864167D01*
X98105189Y-71943324D01*
X98276812Y-71984000D01*
X98276814Y-71984000D01*
X98408944Y-71984000D01*
X98507373Y-71972494D01*
X98540184Y-71968660D01*
X98705924Y-71908336D01*
X98853285Y-71811415D01*
X98974322Y-71683123D01*
X99062510Y-71530376D01*
X99113095Y-71361409D01*
X99123351Y-71185331D01*
X99092723Y-71011634D01*
X99092721Y-71011629D01*
X99092721Y-71011628D01*
X99022865Y-70849684D01*
X99022863Y-70849680D01*
X98917539Y-70708206D01*
X98782428Y-70594833D01*
X98624811Y-70515676D01*
X98624811Y-70515675D01*
X98453188Y-70475000D01*
X98321059Y-70475000D01*
X98321056Y-70475000D01*
X98189816Y-70490339D01*
X98189814Y-70490340D01*
X98024080Y-70550662D01*
X98024073Y-70550665D01*
X97876714Y-70647585D01*
X97755679Y-70775875D01*
X97755676Y-70775879D01*
X97667492Y-70928618D01*
X97667490Y-70928624D01*
X97642641Y-71011628D01*
X97616905Y-71097592D01*
X97606649Y-71273664D01*
X97606649Y-71273668D01*
X91948500Y-71273668D01*
X91948500Y-66873669D01*
X97606649Y-66873669D01*
X97625607Y-66981186D01*
X97637278Y-67047370D01*
X97637278Y-67047371D01*
X97707134Y-67209315D01*
X97707136Y-67209319D01*
X97812460Y-67350793D01*
X97947571Y-67464166D01*
X97947573Y-67464167D01*
X98105189Y-67543324D01*
X98276812Y-67584000D01*
X98276814Y-67584000D01*
X98408944Y-67584000D01*
X98507373Y-67572494D01*
X98540184Y-67568660D01*
X98705924Y-67508336D01*
X98853285Y-67411415D01*
X98974322Y-67283123D01*
X99062510Y-67130376D01*
X99113095Y-66961409D01*
X99123351Y-66785331D01*
X99092723Y-66611634D01*
X99092721Y-66611629D01*
X99092721Y-66611628D01*
X99022865Y-66449684D01*
X99022863Y-66449680D01*
X98917539Y-66308206D01*
X98782428Y-66194833D01*
X98624811Y-66115676D01*
X98624811Y-66115675D01*
X98453188Y-66075000D01*
X98321059Y-66075000D01*
X98321056Y-66075000D01*
X98189816Y-66090339D01*
X98189814Y-66090340D01*
X98024080Y-66150662D01*
X98024073Y-66150665D01*
X97876714Y-66247585D01*
X97755679Y-66375875D01*
X97755676Y-66375879D01*
X97667492Y-66528618D01*
X97667490Y-66528624D01*
X97619194Y-66689947D01*
X97616905Y-66697592D01*
X97609647Y-66822205D01*
X97606649Y-66873669D01*
X91948500Y-66873669D01*
X91948500Y-56705000D01*
X91968502Y-56636879D01*
X92022158Y-56590386D01*
X92074500Y-56579000D01*
X133223500Y-56579000D01*
X133291621Y-56599002D01*
G37*
%TD.AperFunction*%
%TD*%
M02*
