%TF.GenerationSoftware,KiCad,Pcbnew,7.0.7-7.0.7~ubuntu22.04.1*%
%TF.CreationDate,2023-08-24T08:44:54+02:00*%
%TF.ProjectId,esp32-programmer,65737033-322d-4707-926f-6772616d6d65,1*%
%TF.SameCoordinates,Original*%
%TF.FileFunction,Legend,Top*%
%TF.FilePolarity,Positive*%
%FSLAX46Y46*%
G04 Gerber Fmt 4.6, Leading zero omitted, Abs format (unit mm)*
G04 Created by KiCad (PCBNEW 7.0.7-7.0.7~ubuntu22.04.1) date 2023-08-24 08:44:54*
%MOMM*%
%LPD*%
G01*
G04 APERTURE LIST*
%ADD10C,0.150000*%
%ADD11C,0.120000*%
G04 APERTURE END LIST*
D10*
X129663819Y-66274792D02*
X129187628Y-66608125D01*
X129663819Y-66846220D02*
X128663819Y-66846220D01*
X128663819Y-66846220D02*
X128663819Y-66465268D01*
X128663819Y-66465268D02*
X128711438Y-66370030D01*
X128711438Y-66370030D02*
X128759057Y-66322411D01*
X128759057Y-66322411D02*
X128854295Y-66274792D01*
X128854295Y-66274792D02*
X128997152Y-66274792D01*
X128997152Y-66274792D02*
X129092390Y-66322411D01*
X129092390Y-66322411D02*
X129140009Y-66370030D01*
X129140009Y-66370030D02*
X129187628Y-66465268D01*
X129187628Y-66465268D02*
X129187628Y-66846220D01*
X128663819Y-65941458D02*
X129663819Y-65274792D01*
X128663819Y-65274792D02*
X129663819Y-65941458D01*
X129663819Y-72180220D02*
X128663819Y-72180220D01*
X128663819Y-71513554D02*
X128663819Y-71323078D01*
X128663819Y-71323078D02*
X128711438Y-71227840D01*
X128711438Y-71227840D02*
X128806676Y-71132602D01*
X128806676Y-71132602D02*
X128997152Y-71084983D01*
X128997152Y-71084983D02*
X129330485Y-71084983D01*
X129330485Y-71084983D02*
X129520961Y-71132602D01*
X129520961Y-71132602D02*
X129616200Y-71227840D01*
X129616200Y-71227840D02*
X129663819Y-71323078D01*
X129663819Y-71323078D02*
X129663819Y-71513554D01*
X129663819Y-71513554D02*
X129616200Y-71608792D01*
X129616200Y-71608792D02*
X129520961Y-71704030D01*
X129520961Y-71704030D02*
X129330485Y-71751649D01*
X129330485Y-71751649D02*
X128997152Y-71751649D01*
X128997152Y-71751649D02*
X128806676Y-71704030D01*
X128806676Y-71704030D02*
X128711438Y-71608792D01*
X128711438Y-71608792D02*
X128663819Y-71513554D01*
X128663819Y-70465935D02*
X128663819Y-70370697D01*
X128663819Y-70370697D02*
X128711438Y-70275459D01*
X128711438Y-70275459D02*
X128759057Y-70227840D01*
X128759057Y-70227840D02*
X128854295Y-70180221D01*
X128854295Y-70180221D02*
X129044771Y-70132602D01*
X129044771Y-70132602D02*
X129282866Y-70132602D01*
X129282866Y-70132602D02*
X129473342Y-70180221D01*
X129473342Y-70180221D02*
X129568580Y-70227840D01*
X129568580Y-70227840D02*
X129616200Y-70275459D01*
X129616200Y-70275459D02*
X129663819Y-70370697D01*
X129663819Y-70370697D02*
X129663819Y-70465935D01*
X129663819Y-70465935D02*
X129616200Y-70561173D01*
X129616200Y-70561173D02*
X129568580Y-70608792D01*
X129568580Y-70608792D02*
X129473342Y-70656411D01*
X129473342Y-70656411D02*
X129282866Y-70704030D01*
X129282866Y-70704030D02*
X129044771Y-70704030D01*
X129044771Y-70704030D02*
X128854295Y-70656411D01*
X128854295Y-70656411D02*
X128759057Y-70608792D01*
X128759057Y-70608792D02*
X128711438Y-70561173D01*
X128711438Y-70561173D02*
X128663819Y-70465935D01*
X128663819Y-64322077D02*
X128663819Y-63750649D01*
X129663819Y-64036363D02*
X128663819Y-64036363D01*
X128663819Y-63512553D02*
X129663819Y-62845887D01*
X128663819Y-62845887D02*
X129663819Y-63512553D01*
X128711438Y-75339411D02*
X128663819Y-75434649D01*
X128663819Y-75434649D02*
X128663819Y-75577506D01*
X128663819Y-75577506D02*
X128711438Y-75720363D01*
X128711438Y-75720363D02*
X128806676Y-75815601D01*
X128806676Y-75815601D02*
X128901914Y-75863220D01*
X128901914Y-75863220D02*
X129092390Y-75910839D01*
X129092390Y-75910839D02*
X129235247Y-75910839D01*
X129235247Y-75910839D02*
X129425723Y-75863220D01*
X129425723Y-75863220D02*
X129520961Y-75815601D01*
X129520961Y-75815601D02*
X129616200Y-75720363D01*
X129616200Y-75720363D02*
X129663819Y-75577506D01*
X129663819Y-75577506D02*
X129663819Y-75482268D01*
X129663819Y-75482268D02*
X129616200Y-75339411D01*
X129616200Y-75339411D02*
X129568580Y-75291792D01*
X129568580Y-75291792D02*
X129235247Y-75291792D01*
X129235247Y-75291792D02*
X129235247Y-75482268D01*
X129663819Y-74863220D02*
X128663819Y-74863220D01*
X128663819Y-74863220D02*
X129663819Y-74291792D01*
X129663819Y-74291792D02*
X128663819Y-74291792D01*
X129663819Y-73815601D02*
X128663819Y-73815601D01*
X128663819Y-73815601D02*
X128663819Y-73577506D01*
X128663819Y-73577506D02*
X128711438Y-73434649D01*
X128711438Y-73434649D02*
X128806676Y-73339411D01*
X128806676Y-73339411D02*
X128901914Y-73291792D01*
X128901914Y-73291792D02*
X129092390Y-73244173D01*
X129092390Y-73244173D02*
X129235247Y-73244173D01*
X129235247Y-73244173D02*
X129425723Y-73291792D01*
X129425723Y-73291792D02*
X129520961Y-73339411D01*
X129520961Y-73339411D02*
X129616200Y-73434649D01*
X129616200Y-73434649D02*
X129663819Y-73577506D01*
X129663819Y-73577506D02*
X129663819Y-73815601D01*
X128663819Y-58242030D02*
X128663819Y-58718220D01*
X128663819Y-58718220D02*
X129140009Y-58765839D01*
X129140009Y-58765839D02*
X129092390Y-58718220D01*
X129092390Y-58718220D02*
X129044771Y-58622982D01*
X129044771Y-58622982D02*
X129044771Y-58384887D01*
X129044771Y-58384887D02*
X129092390Y-58289649D01*
X129092390Y-58289649D02*
X129140009Y-58242030D01*
X129140009Y-58242030D02*
X129235247Y-58194411D01*
X129235247Y-58194411D02*
X129473342Y-58194411D01*
X129473342Y-58194411D02*
X129568580Y-58242030D01*
X129568580Y-58242030D02*
X129616200Y-58289649D01*
X129616200Y-58289649D02*
X129663819Y-58384887D01*
X129663819Y-58384887D02*
X129663819Y-58622982D01*
X129663819Y-58622982D02*
X129616200Y-58718220D01*
X129616200Y-58718220D02*
X129568580Y-58765839D01*
X128663819Y-57908696D02*
X129663819Y-57575363D01*
X129663819Y-57575363D02*
X128663819Y-57242030D01*
X93869143Y-78374009D02*
X94202476Y-78374009D01*
X94345333Y-78897819D02*
X93869143Y-78897819D01*
X93869143Y-78897819D02*
X93869143Y-77897819D01*
X93869143Y-77897819D02*
X94345333Y-77897819D01*
X94726286Y-78850200D02*
X94869143Y-78897819D01*
X94869143Y-78897819D02*
X95107238Y-78897819D01*
X95107238Y-78897819D02*
X95202476Y-78850200D01*
X95202476Y-78850200D02*
X95250095Y-78802580D01*
X95250095Y-78802580D02*
X95297714Y-78707342D01*
X95297714Y-78707342D02*
X95297714Y-78612104D01*
X95297714Y-78612104D02*
X95250095Y-78516866D01*
X95250095Y-78516866D02*
X95202476Y-78469247D01*
X95202476Y-78469247D02*
X95107238Y-78421628D01*
X95107238Y-78421628D02*
X94916762Y-78374009D01*
X94916762Y-78374009D02*
X94821524Y-78326390D01*
X94821524Y-78326390D02*
X94773905Y-78278771D01*
X94773905Y-78278771D02*
X94726286Y-78183533D01*
X94726286Y-78183533D02*
X94726286Y-78088295D01*
X94726286Y-78088295D02*
X94773905Y-77993057D01*
X94773905Y-77993057D02*
X94821524Y-77945438D01*
X94821524Y-77945438D02*
X94916762Y-77897819D01*
X94916762Y-77897819D02*
X95154857Y-77897819D01*
X95154857Y-77897819D02*
X95297714Y-77945438D01*
X95726286Y-78897819D02*
X95726286Y-77897819D01*
X95726286Y-77897819D02*
X96107238Y-77897819D01*
X96107238Y-77897819D02*
X96202476Y-77945438D01*
X96202476Y-77945438D02*
X96250095Y-77993057D01*
X96250095Y-77993057D02*
X96297714Y-78088295D01*
X96297714Y-78088295D02*
X96297714Y-78231152D01*
X96297714Y-78231152D02*
X96250095Y-78326390D01*
X96250095Y-78326390D02*
X96202476Y-78374009D01*
X96202476Y-78374009D02*
X96107238Y-78421628D01*
X96107238Y-78421628D02*
X95726286Y-78421628D01*
X96631048Y-77897819D02*
X97250095Y-77897819D01*
X97250095Y-77897819D02*
X96916762Y-78278771D01*
X96916762Y-78278771D02*
X97059619Y-78278771D01*
X97059619Y-78278771D02*
X97154857Y-78326390D01*
X97154857Y-78326390D02*
X97202476Y-78374009D01*
X97202476Y-78374009D02*
X97250095Y-78469247D01*
X97250095Y-78469247D02*
X97250095Y-78707342D01*
X97250095Y-78707342D02*
X97202476Y-78802580D01*
X97202476Y-78802580D02*
X97154857Y-78850200D01*
X97154857Y-78850200D02*
X97059619Y-78897819D01*
X97059619Y-78897819D02*
X96773905Y-78897819D01*
X96773905Y-78897819D02*
X96678667Y-78850200D01*
X96678667Y-78850200D02*
X96631048Y-78802580D01*
X97631048Y-77993057D02*
X97678667Y-77945438D01*
X97678667Y-77945438D02*
X97773905Y-77897819D01*
X97773905Y-77897819D02*
X98012000Y-77897819D01*
X98012000Y-77897819D02*
X98107238Y-77945438D01*
X98107238Y-77945438D02*
X98154857Y-77993057D01*
X98154857Y-77993057D02*
X98202476Y-78088295D01*
X98202476Y-78088295D02*
X98202476Y-78183533D01*
X98202476Y-78183533D02*
X98154857Y-78326390D01*
X98154857Y-78326390D02*
X97583429Y-78897819D01*
X97583429Y-78897819D02*
X98202476Y-78897819D01*
X93845332Y-79984009D02*
X93511999Y-79984009D01*
X93511999Y-80507819D02*
X93511999Y-79507819D01*
X93511999Y-79507819D02*
X93988189Y-79507819D01*
X94511999Y-80507819D02*
X94416761Y-80460200D01*
X94416761Y-80460200D02*
X94369142Y-80364961D01*
X94369142Y-80364961D02*
X94369142Y-79507819D01*
X95321523Y-80507819D02*
X95321523Y-79984009D01*
X95321523Y-79984009D02*
X95273904Y-79888771D01*
X95273904Y-79888771D02*
X95178666Y-79841152D01*
X95178666Y-79841152D02*
X94988190Y-79841152D01*
X94988190Y-79841152D02*
X94892952Y-79888771D01*
X95321523Y-80460200D02*
X95226285Y-80507819D01*
X95226285Y-80507819D02*
X94988190Y-80507819D01*
X94988190Y-80507819D02*
X94892952Y-80460200D01*
X94892952Y-80460200D02*
X94845333Y-80364961D01*
X94845333Y-80364961D02*
X94845333Y-80269723D01*
X94845333Y-80269723D02*
X94892952Y-80174485D01*
X94892952Y-80174485D02*
X94988190Y-80126866D01*
X94988190Y-80126866D02*
X95226285Y-80126866D01*
X95226285Y-80126866D02*
X95321523Y-80079247D01*
X95750095Y-80460200D02*
X95845333Y-80507819D01*
X95845333Y-80507819D02*
X96035809Y-80507819D01*
X96035809Y-80507819D02*
X96131047Y-80460200D01*
X96131047Y-80460200D02*
X96178666Y-80364961D01*
X96178666Y-80364961D02*
X96178666Y-80317342D01*
X96178666Y-80317342D02*
X96131047Y-80222104D01*
X96131047Y-80222104D02*
X96035809Y-80174485D01*
X96035809Y-80174485D02*
X95892952Y-80174485D01*
X95892952Y-80174485D02*
X95797714Y-80126866D01*
X95797714Y-80126866D02*
X95750095Y-80031628D01*
X95750095Y-80031628D02*
X95750095Y-79984009D01*
X95750095Y-79984009D02*
X95797714Y-79888771D01*
X95797714Y-79888771D02*
X95892952Y-79841152D01*
X95892952Y-79841152D02*
X96035809Y-79841152D01*
X96035809Y-79841152D02*
X96131047Y-79888771D01*
X96607238Y-80507819D02*
X96607238Y-79507819D01*
X97035809Y-80507819D02*
X97035809Y-79984009D01*
X97035809Y-79984009D02*
X96988190Y-79888771D01*
X96988190Y-79888771D02*
X96892952Y-79841152D01*
X96892952Y-79841152D02*
X96750095Y-79841152D01*
X96750095Y-79841152D02*
X96654857Y-79888771D01*
X96654857Y-79888771D02*
X96607238Y-79936390D01*
X97892952Y-80460200D02*
X97797714Y-80507819D01*
X97797714Y-80507819D02*
X97607238Y-80507819D01*
X97607238Y-80507819D02*
X97512000Y-80460200D01*
X97512000Y-80460200D02*
X97464381Y-80364961D01*
X97464381Y-80364961D02*
X97464381Y-79984009D01*
X97464381Y-79984009D02*
X97512000Y-79888771D01*
X97512000Y-79888771D02*
X97607238Y-79841152D01*
X97607238Y-79841152D02*
X97797714Y-79841152D01*
X97797714Y-79841152D02*
X97892952Y-79888771D01*
X97892952Y-79888771D02*
X97940571Y-79984009D01*
X97940571Y-79984009D02*
X97940571Y-80079247D01*
X97940571Y-80079247D02*
X97464381Y-80174485D01*
X98369143Y-80507819D02*
X98369143Y-79841152D01*
X98369143Y-80031628D02*
X98416762Y-79936390D01*
X98416762Y-79936390D02*
X98464381Y-79888771D01*
X98464381Y-79888771D02*
X98559619Y-79841152D01*
X98559619Y-79841152D02*
X98654857Y-79841152D01*
X128663819Y-61988458D02*
X128663819Y-61369411D01*
X128663819Y-61369411D02*
X129044771Y-61702744D01*
X129044771Y-61702744D02*
X129044771Y-61559887D01*
X129044771Y-61559887D02*
X129092390Y-61464649D01*
X129092390Y-61464649D02*
X129140009Y-61417030D01*
X129140009Y-61417030D02*
X129235247Y-61369411D01*
X129235247Y-61369411D02*
X129473342Y-61369411D01*
X129473342Y-61369411D02*
X129568580Y-61417030D01*
X129568580Y-61417030D02*
X129616200Y-61464649D01*
X129616200Y-61464649D02*
X129663819Y-61559887D01*
X129663819Y-61559887D02*
X129663819Y-61845601D01*
X129663819Y-61845601D02*
X129616200Y-61940839D01*
X129616200Y-61940839D02*
X129568580Y-61988458D01*
X128663819Y-61083696D02*
X129663819Y-60750363D01*
X129663819Y-60750363D02*
X128663819Y-60417030D01*
X128663819Y-60178934D02*
X128663819Y-59559887D01*
X128663819Y-59559887D02*
X129044771Y-59893220D01*
X129044771Y-59893220D02*
X129044771Y-59750363D01*
X129044771Y-59750363D02*
X129092390Y-59655125D01*
X129092390Y-59655125D02*
X129140009Y-59607506D01*
X129140009Y-59607506D02*
X129235247Y-59559887D01*
X129235247Y-59559887D02*
X129473342Y-59559887D01*
X129473342Y-59559887D02*
X129568580Y-59607506D01*
X129568580Y-59607506D02*
X129616200Y-59655125D01*
X129616200Y-59655125D02*
X129663819Y-59750363D01*
X129663819Y-59750363D02*
X129663819Y-60036077D01*
X129663819Y-60036077D02*
X129616200Y-60131315D01*
X129616200Y-60131315D02*
X129568580Y-60178934D01*
X129140009Y-69259220D02*
X129140009Y-68925887D01*
X129663819Y-68783030D02*
X129663819Y-69259220D01*
X129663819Y-69259220D02*
X128663819Y-69259220D01*
X128663819Y-69259220D02*
X128663819Y-68783030D01*
X129663819Y-68354458D02*
X128663819Y-68354458D01*
X128663819Y-68354458D02*
X129663819Y-67783030D01*
X129663819Y-67783030D02*
X128663819Y-67783030D01*
X93480998Y-57498438D02*
X93385760Y-57450819D01*
X93385760Y-57450819D02*
X93242903Y-57450819D01*
X93242903Y-57450819D02*
X93100046Y-57498438D01*
X93100046Y-57498438D02*
X93004808Y-57593676D01*
X93004808Y-57593676D02*
X92957189Y-57688914D01*
X92957189Y-57688914D02*
X92909570Y-57879390D01*
X92909570Y-57879390D02*
X92909570Y-58022247D01*
X92909570Y-58022247D02*
X92957189Y-58212723D01*
X92957189Y-58212723D02*
X93004808Y-58307961D01*
X93004808Y-58307961D02*
X93100046Y-58403200D01*
X93100046Y-58403200D02*
X93242903Y-58450819D01*
X93242903Y-58450819D02*
X93338141Y-58450819D01*
X93338141Y-58450819D02*
X93480998Y-58403200D01*
X93480998Y-58403200D02*
X93528617Y-58355580D01*
X93528617Y-58355580D02*
X93528617Y-58022247D01*
X93528617Y-58022247D02*
X93338141Y-58022247D01*
X93909570Y-57546057D02*
X93957189Y-57498438D01*
X93957189Y-57498438D02*
X94052427Y-57450819D01*
X94052427Y-57450819D02*
X94290522Y-57450819D01*
X94290522Y-57450819D02*
X94385760Y-57498438D01*
X94385760Y-57498438D02*
X94433379Y-57546057D01*
X94433379Y-57546057D02*
X94480998Y-57641295D01*
X94480998Y-57641295D02*
X94480998Y-57736533D01*
X94480998Y-57736533D02*
X94433379Y-57879390D01*
X94433379Y-57879390D02*
X93861951Y-58450819D01*
X93861951Y-58450819D02*
X94480998Y-58450819D01*
X95385760Y-58450819D02*
X94909570Y-58450819D01*
X94909570Y-58450819D02*
X94909570Y-57450819D01*
X96147665Y-58450819D02*
X96147665Y-57927009D01*
X96147665Y-57927009D02*
X96100046Y-57831771D01*
X96100046Y-57831771D02*
X96004808Y-57784152D01*
X96004808Y-57784152D02*
X95814332Y-57784152D01*
X95814332Y-57784152D02*
X95719094Y-57831771D01*
X96147665Y-58403200D02*
X96052427Y-58450819D01*
X96052427Y-58450819D02*
X95814332Y-58450819D01*
X95814332Y-58450819D02*
X95719094Y-58403200D01*
X95719094Y-58403200D02*
X95671475Y-58307961D01*
X95671475Y-58307961D02*
X95671475Y-58212723D01*
X95671475Y-58212723D02*
X95719094Y-58117485D01*
X95719094Y-58117485D02*
X95814332Y-58069866D01*
X95814332Y-58069866D02*
X96052427Y-58069866D01*
X96052427Y-58069866D02*
X96147665Y-58022247D01*
X96623856Y-58450819D02*
X96623856Y-57450819D01*
X96623856Y-57831771D02*
X96719094Y-57784152D01*
X96719094Y-57784152D02*
X96909570Y-57784152D01*
X96909570Y-57784152D02*
X97004808Y-57831771D01*
X97004808Y-57831771D02*
X97052427Y-57879390D01*
X97052427Y-57879390D02*
X97100046Y-57974628D01*
X97100046Y-57974628D02*
X97100046Y-58260342D01*
X97100046Y-58260342D02*
X97052427Y-58355580D01*
X97052427Y-58355580D02*
X97004808Y-58403200D01*
X97004808Y-58403200D02*
X96909570Y-58450819D01*
X96909570Y-58450819D02*
X96719094Y-58450819D01*
X96719094Y-58450819D02*
X96623856Y-58403200D01*
X97480999Y-58403200D02*
X97576237Y-58450819D01*
X97576237Y-58450819D02*
X97766713Y-58450819D01*
X97766713Y-58450819D02*
X97861951Y-58403200D01*
X97861951Y-58403200D02*
X97909570Y-58307961D01*
X97909570Y-58307961D02*
X97909570Y-58260342D01*
X97909570Y-58260342D02*
X97861951Y-58165104D01*
X97861951Y-58165104D02*
X97766713Y-58117485D01*
X97766713Y-58117485D02*
X97623856Y-58117485D01*
X97623856Y-58117485D02*
X97528618Y-58069866D01*
X97528618Y-58069866D02*
X97480999Y-57974628D01*
X97480999Y-57974628D02*
X97480999Y-57927009D01*
X97480999Y-57927009D02*
X97528618Y-57831771D01*
X97528618Y-57831771D02*
X97623856Y-57784152D01*
X97623856Y-57784152D02*
X97766713Y-57784152D01*
X97766713Y-57784152D02*
X97861951Y-57831771D01*
X99623856Y-57498438D02*
X99528618Y-57450819D01*
X99528618Y-57450819D02*
X99385761Y-57450819D01*
X99385761Y-57450819D02*
X99242904Y-57498438D01*
X99242904Y-57498438D02*
X99147666Y-57593676D01*
X99147666Y-57593676D02*
X99100047Y-57688914D01*
X99100047Y-57688914D02*
X99052428Y-57879390D01*
X99052428Y-57879390D02*
X99052428Y-58022247D01*
X99052428Y-58022247D02*
X99100047Y-58212723D01*
X99100047Y-58212723D02*
X99147666Y-58307961D01*
X99147666Y-58307961D02*
X99242904Y-58403200D01*
X99242904Y-58403200D02*
X99385761Y-58450819D01*
X99385761Y-58450819D02*
X99480999Y-58450819D01*
X99480999Y-58450819D02*
X99623856Y-58403200D01*
X99623856Y-58403200D02*
X99671475Y-58355580D01*
X99671475Y-58355580D02*
X99671475Y-58022247D01*
X99671475Y-58022247D02*
X99480999Y-58022247D01*
X100100047Y-58450819D02*
X100100047Y-57784152D01*
X100100047Y-57974628D02*
X100147666Y-57879390D01*
X100147666Y-57879390D02*
X100195285Y-57831771D01*
X100195285Y-57831771D02*
X100290523Y-57784152D01*
X100290523Y-57784152D02*
X100385761Y-57784152D01*
X100623857Y-57784152D02*
X101147666Y-57784152D01*
X101147666Y-57784152D02*
X100623857Y-58450819D01*
X100623857Y-58450819D02*
X101147666Y-58450819D01*
X101909571Y-58403200D02*
X101814333Y-58450819D01*
X101814333Y-58450819D02*
X101623857Y-58450819D01*
X101623857Y-58450819D02*
X101528619Y-58403200D01*
X101528619Y-58403200D02*
X101481000Y-58307961D01*
X101481000Y-58307961D02*
X101481000Y-57927009D01*
X101481000Y-57927009D02*
X101528619Y-57831771D01*
X101528619Y-57831771D02*
X101623857Y-57784152D01*
X101623857Y-57784152D02*
X101814333Y-57784152D01*
X101814333Y-57784152D02*
X101909571Y-57831771D01*
X101909571Y-57831771D02*
X101957190Y-57927009D01*
X101957190Y-57927009D02*
X101957190Y-58022247D01*
X101957190Y-58022247D02*
X101481000Y-58117485D01*
X102814333Y-57784152D02*
X102814333Y-58593676D01*
X102814333Y-58593676D02*
X102766714Y-58688914D01*
X102766714Y-58688914D02*
X102719095Y-58736533D01*
X102719095Y-58736533D02*
X102623857Y-58784152D01*
X102623857Y-58784152D02*
X102481000Y-58784152D01*
X102481000Y-58784152D02*
X102385762Y-58736533D01*
X102814333Y-58403200D02*
X102719095Y-58450819D01*
X102719095Y-58450819D02*
X102528619Y-58450819D01*
X102528619Y-58450819D02*
X102433381Y-58403200D01*
X102433381Y-58403200D02*
X102385762Y-58355580D01*
X102385762Y-58355580D02*
X102338143Y-58260342D01*
X102338143Y-58260342D02*
X102338143Y-57974628D01*
X102338143Y-57974628D02*
X102385762Y-57879390D01*
X102385762Y-57879390D02*
X102433381Y-57831771D01*
X102433381Y-57831771D02*
X102528619Y-57784152D01*
X102528619Y-57784152D02*
X102719095Y-57784152D01*
X102719095Y-57784152D02*
X102814333Y-57831771D01*
X103433381Y-58450819D02*
X103338143Y-58403200D01*
X103338143Y-58403200D02*
X103290524Y-58355580D01*
X103290524Y-58355580D02*
X103242905Y-58260342D01*
X103242905Y-58260342D02*
X103242905Y-57974628D01*
X103242905Y-57974628D02*
X103290524Y-57879390D01*
X103290524Y-57879390D02*
X103338143Y-57831771D01*
X103338143Y-57831771D02*
X103433381Y-57784152D01*
X103433381Y-57784152D02*
X103576238Y-57784152D01*
X103576238Y-57784152D02*
X103671476Y-57831771D01*
X103671476Y-57831771D02*
X103719095Y-57879390D01*
X103719095Y-57879390D02*
X103766714Y-57974628D01*
X103766714Y-57974628D02*
X103766714Y-58260342D01*
X103766714Y-58260342D02*
X103719095Y-58355580D01*
X103719095Y-58355580D02*
X103671476Y-58403200D01*
X103671476Y-58403200D02*
X103576238Y-58450819D01*
X103576238Y-58450819D02*
X103433381Y-58450819D01*
X104195286Y-58450819D02*
X104195286Y-57784152D01*
X104195286Y-57974628D02*
X104242905Y-57879390D01*
X104242905Y-57879390D02*
X104290524Y-57831771D01*
X104290524Y-57831771D02*
X104385762Y-57784152D01*
X104385762Y-57784152D02*
X104481000Y-57784152D01*
X104719096Y-57784152D02*
X105242905Y-57784152D01*
X105242905Y-57784152D02*
X104719096Y-58450819D01*
X104719096Y-58450819D02*
X105242905Y-58450819D01*
X106909572Y-57498438D02*
X106814334Y-57450819D01*
X106814334Y-57450819D02*
X106671477Y-57450819D01*
X106671477Y-57450819D02*
X106528620Y-57498438D01*
X106528620Y-57498438D02*
X106433382Y-57593676D01*
X106433382Y-57593676D02*
X106385763Y-57688914D01*
X106385763Y-57688914D02*
X106338144Y-57879390D01*
X106338144Y-57879390D02*
X106338144Y-58022247D01*
X106338144Y-58022247D02*
X106385763Y-58212723D01*
X106385763Y-58212723D02*
X106433382Y-58307961D01*
X106433382Y-58307961D02*
X106528620Y-58403200D01*
X106528620Y-58403200D02*
X106671477Y-58450819D01*
X106671477Y-58450819D02*
X106766715Y-58450819D01*
X106766715Y-58450819D02*
X106909572Y-58403200D01*
X106909572Y-58403200D02*
X106957191Y-58355580D01*
X106957191Y-58355580D02*
X106957191Y-58022247D01*
X106957191Y-58022247D02*
X106766715Y-58022247D01*
X107385763Y-58450819D02*
X107385763Y-57784152D01*
X107385763Y-57974628D02*
X107433382Y-57879390D01*
X107433382Y-57879390D02*
X107481001Y-57831771D01*
X107481001Y-57831771D02*
X107576239Y-57784152D01*
X107576239Y-57784152D02*
X107671477Y-57784152D01*
X107909573Y-57784152D02*
X108433382Y-57784152D01*
X108433382Y-57784152D02*
X107909573Y-58450819D01*
X107909573Y-58450819D02*
X108433382Y-58450819D01*
X109195287Y-58403200D02*
X109100049Y-58450819D01*
X109100049Y-58450819D02*
X108909573Y-58450819D01*
X108909573Y-58450819D02*
X108814335Y-58403200D01*
X108814335Y-58403200D02*
X108766716Y-58307961D01*
X108766716Y-58307961D02*
X108766716Y-57927009D01*
X108766716Y-57927009D02*
X108814335Y-57831771D01*
X108814335Y-57831771D02*
X108909573Y-57784152D01*
X108909573Y-57784152D02*
X109100049Y-57784152D01*
X109100049Y-57784152D02*
X109195287Y-57831771D01*
X109195287Y-57831771D02*
X109242906Y-57927009D01*
X109242906Y-57927009D02*
X109242906Y-58022247D01*
X109242906Y-58022247D02*
X108766716Y-58117485D01*
X109004811Y-58450819D02*
X108909573Y-58546057D01*
X108909573Y-58546057D02*
X108861954Y-58641295D01*
X108861954Y-58641295D02*
X108909573Y-58736533D01*
X108909573Y-58736533D02*
X109004811Y-58784152D01*
X109004811Y-58784152D02*
X109100049Y-58784152D01*
X110100049Y-58450819D02*
X110100049Y-57450819D01*
X110100049Y-58403200D02*
X110004811Y-58450819D01*
X110004811Y-58450819D02*
X109814335Y-58450819D01*
X109814335Y-58450819D02*
X109719097Y-58403200D01*
X109719097Y-58403200D02*
X109671478Y-58355580D01*
X109671478Y-58355580D02*
X109623859Y-58260342D01*
X109623859Y-58260342D02*
X109623859Y-57974628D01*
X109623859Y-57974628D02*
X109671478Y-57879390D01*
X109671478Y-57879390D02*
X109719097Y-57831771D01*
X109719097Y-57831771D02*
X109814335Y-57784152D01*
X109814335Y-57784152D02*
X110004811Y-57784152D01*
X110004811Y-57784152D02*
X110100049Y-57831771D01*
X111004811Y-58450819D02*
X111004811Y-57927009D01*
X111004811Y-57927009D02*
X110957192Y-57831771D01*
X110957192Y-57831771D02*
X110861954Y-57784152D01*
X110861954Y-57784152D02*
X110671478Y-57784152D01*
X110671478Y-57784152D02*
X110576240Y-57831771D01*
X111004811Y-58403200D02*
X110909573Y-58450819D01*
X110909573Y-58450819D02*
X110671478Y-58450819D01*
X110671478Y-58450819D02*
X110576240Y-58403200D01*
X110576240Y-58403200D02*
X110528621Y-58307961D01*
X110528621Y-58307961D02*
X110528621Y-58212723D01*
X110528621Y-58212723D02*
X110576240Y-58117485D01*
X110576240Y-58117485D02*
X110671478Y-58069866D01*
X110671478Y-58069866D02*
X110909573Y-58069866D01*
X110909573Y-58069866D02*
X111004811Y-58022247D01*
X96861952Y-59394152D02*
X97052428Y-60060819D01*
X97052428Y-60060819D02*
X97242904Y-59584628D01*
X97242904Y-59584628D02*
X97433380Y-60060819D01*
X97433380Y-60060819D02*
X97623856Y-59394152D01*
X97909571Y-59394152D02*
X98100047Y-60060819D01*
X98100047Y-60060819D02*
X98290523Y-59584628D01*
X98290523Y-59584628D02*
X98480999Y-60060819D01*
X98480999Y-60060819D02*
X98671475Y-59394152D01*
X98957190Y-59394152D02*
X99147666Y-60060819D01*
X99147666Y-60060819D02*
X99338142Y-59584628D01*
X99338142Y-59584628D02*
X99528618Y-60060819D01*
X99528618Y-60060819D02*
X99719094Y-59394152D01*
X100100047Y-59965580D02*
X100147666Y-60013200D01*
X100147666Y-60013200D02*
X100100047Y-60060819D01*
X100100047Y-60060819D02*
X100052428Y-60013200D01*
X100052428Y-60013200D02*
X100100047Y-59965580D01*
X100100047Y-59965580D02*
X100100047Y-60060819D01*
X101004808Y-59394152D02*
X101004808Y-60203676D01*
X101004808Y-60203676D02*
X100957189Y-60298914D01*
X100957189Y-60298914D02*
X100909570Y-60346533D01*
X100909570Y-60346533D02*
X100814332Y-60394152D01*
X100814332Y-60394152D02*
X100671475Y-60394152D01*
X100671475Y-60394152D02*
X100576237Y-60346533D01*
X101004808Y-60013200D02*
X100909570Y-60060819D01*
X100909570Y-60060819D02*
X100719094Y-60060819D01*
X100719094Y-60060819D02*
X100623856Y-60013200D01*
X100623856Y-60013200D02*
X100576237Y-59965580D01*
X100576237Y-59965580D02*
X100528618Y-59870342D01*
X100528618Y-59870342D02*
X100528618Y-59584628D01*
X100528618Y-59584628D02*
X100576237Y-59489390D01*
X100576237Y-59489390D02*
X100623856Y-59441771D01*
X100623856Y-59441771D02*
X100719094Y-59394152D01*
X100719094Y-59394152D02*
X100909570Y-59394152D01*
X100909570Y-59394152D02*
X101004808Y-59441771D01*
X101433380Y-59156057D02*
X101480999Y-59108438D01*
X101480999Y-59108438D02*
X101576237Y-59060819D01*
X101576237Y-59060819D02*
X101814332Y-59060819D01*
X101814332Y-59060819D02*
X101909570Y-59108438D01*
X101909570Y-59108438D02*
X101957189Y-59156057D01*
X101957189Y-59156057D02*
X102004808Y-59251295D01*
X102004808Y-59251295D02*
X102004808Y-59346533D01*
X102004808Y-59346533D02*
X101957189Y-59489390D01*
X101957189Y-59489390D02*
X101385761Y-60060819D01*
X101385761Y-60060819D02*
X102004808Y-60060819D01*
X102576237Y-60060819D02*
X102480999Y-60013200D01*
X102480999Y-60013200D02*
X102433380Y-59917961D01*
X102433380Y-59917961D02*
X102433380Y-59060819D01*
X103385761Y-60060819D02*
X103385761Y-59537009D01*
X103385761Y-59537009D02*
X103338142Y-59441771D01*
X103338142Y-59441771D02*
X103242904Y-59394152D01*
X103242904Y-59394152D02*
X103052428Y-59394152D01*
X103052428Y-59394152D02*
X102957190Y-59441771D01*
X103385761Y-60013200D02*
X103290523Y-60060819D01*
X103290523Y-60060819D02*
X103052428Y-60060819D01*
X103052428Y-60060819D02*
X102957190Y-60013200D01*
X102957190Y-60013200D02*
X102909571Y-59917961D01*
X102909571Y-59917961D02*
X102909571Y-59822723D01*
X102909571Y-59822723D02*
X102957190Y-59727485D01*
X102957190Y-59727485D02*
X103052428Y-59679866D01*
X103052428Y-59679866D02*
X103290523Y-59679866D01*
X103290523Y-59679866D02*
X103385761Y-59632247D01*
X103861952Y-60060819D02*
X103861952Y-59060819D01*
X103861952Y-59441771D02*
X103957190Y-59394152D01*
X103957190Y-59394152D02*
X104147666Y-59394152D01*
X104147666Y-59394152D02*
X104242904Y-59441771D01*
X104242904Y-59441771D02*
X104290523Y-59489390D01*
X104290523Y-59489390D02*
X104338142Y-59584628D01*
X104338142Y-59584628D02*
X104338142Y-59870342D01*
X104338142Y-59870342D02*
X104290523Y-59965580D01*
X104290523Y-59965580D02*
X104242904Y-60013200D01*
X104242904Y-60013200D02*
X104147666Y-60060819D01*
X104147666Y-60060819D02*
X103957190Y-60060819D01*
X103957190Y-60060819D02*
X103861952Y-60013200D01*
X104719095Y-60013200D02*
X104814333Y-60060819D01*
X104814333Y-60060819D02*
X105004809Y-60060819D01*
X105004809Y-60060819D02*
X105100047Y-60013200D01*
X105100047Y-60013200D02*
X105147666Y-59917961D01*
X105147666Y-59917961D02*
X105147666Y-59870342D01*
X105147666Y-59870342D02*
X105100047Y-59775104D01*
X105100047Y-59775104D02*
X105004809Y-59727485D01*
X105004809Y-59727485D02*
X104861952Y-59727485D01*
X104861952Y-59727485D02*
X104766714Y-59679866D01*
X104766714Y-59679866D02*
X104719095Y-59584628D01*
X104719095Y-59584628D02*
X104719095Y-59537009D01*
X104719095Y-59537009D02*
X104766714Y-59441771D01*
X104766714Y-59441771D02*
X104861952Y-59394152D01*
X104861952Y-59394152D02*
X105004809Y-59394152D01*
X105004809Y-59394152D02*
X105100047Y-59441771D01*
X105576238Y-59965580D02*
X105623857Y-60013200D01*
X105623857Y-60013200D02*
X105576238Y-60060819D01*
X105576238Y-60060819D02*
X105528619Y-60013200D01*
X105528619Y-60013200D02*
X105576238Y-59965580D01*
X105576238Y-59965580D02*
X105576238Y-60060819D01*
X106052428Y-59394152D02*
X106052428Y-60394152D01*
X106052428Y-59441771D02*
X106147666Y-59394152D01*
X106147666Y-59394152D02*
X106338142Y-59394152D01*
X106338142Y-59394152D02*
X106433380Y-59441771D01*
X106433380Y-59441771D02*
X106480999Y-59489390D01*
X106480999Y-59489390D02*
X106528618Y-59584628D01*
X106528618Y-59584628D02*
X106528618Y-59870342D01*
X106528618Y-59870342D02*
X106480999Y-59965580D01*
X106480999Y-59965580D02*
X106433380Y-60013200D01*
X106433380Y-60013200D02*
X106338142Y-60060819D01*
X106338142Y-60060819D02*
X106147666Y-60060819D01*
X106147666Y-60060819D02*
X106052428Y-60013200D01*
X107100047Y-60060819D02*
X107004809Y-60013200D01*
X107004809Y-60013200D02*
X106957190Y-59917961D01*
X106957190Y-59917961D02*
X106957190Y-59060819D01*
X120943857Y-81274509D02*
X121086714Y-81322128D01*
X121086714Y-81322128D02*
X121134333Y-81369747D01*
X121134333Y-81369747D02*
X121181952Y-81464985D01*
X121181952Y-81464985D02*
X121181952Y-81607842D01*
X121181952Y-81607842D02*
X121134333Y-81703080D01*
X121134333Y-81703080D02*
X121086714Y-81750700D01*
X121086714Y-81750700D02*
X120991476Y-81798319D01*
X120991476Y-81798319D02*
X120610524Y-81798319D01*
X120610524Y-81798319D02*
X120610524Y-80798319D01*
X120610524Y-80798319D02*
X120943857Y-80798319D01*
X120943857Y-80798319D02*
X121039095Y-80845938D01*
X121039095Y-80845938D02*
X121086714Y-80893557D01*
X121086714Y-80893557D02*
X121134333Y-80988795D01*
X121134333Y-80988795D02*
X121134333Y-81084033D01*
X121134333Y-81084033D02*
X121086714Y-81179271D01*
X121086714Y-81179271D02*
X121039095Y-81226890D01*
X121039095Y-81226890D02*
X120943857Y-81274509D01*
X120943857Y-81274509D02*
X120610524Y-81274509D01*
X121801000Y-80798319D02*
X121991476Y-80798319D01*
X121991476Y-80798319D02*
X122086714Y-80845938D01*
X122086714Y-80845938D02*
X122181952Y-80941176D01*
X122181952Y-80941176D02*
X122229571Y-81131652D01*
X122229571Y-81131652D02*
X122229571Y-81464985D01*
X122229571Y-81464985D02*
X122181952Y-81655461D01*
X122181952Y-81655461D02*
X122086714Y-81750700D01*
X122086714Y-81750700D02*
X121991476Y-81798319D01*
X121991476Y-81798319D02*
X121801000Y-81798319D01*
X121801000Y-81798319D02*
X121705762Y-81750700D01*
X121705762Y-81750700D02*
X121610524Y-81655461D01*
X121610524Y-81655461D02*
X121562905Y-81464985D01*
X121562905Y-81464985D02*
X121562905Y-81131652D01*
X121562905Y-81131652D02*
X121610524Y-80941176D01*
X121610524Y-80941176D02*
X121705762Y-80845938D01*
X121705762Y-80845938D02*
X121801000Y-80798319D01*
X122848619Y-80798319D02*
X123039095Y-80798319D01*
X123039095Y-80798319D02*
X123134333Y-80845938D01*
X123134333Y-80845938D02*
X123229571Y-80941176D01*
X123229571Y-80941176D02*
X123277190Y-81131652D01*
X123277190Y-81131652D02*
X123277190Y-81464985D01*
X123277190Y-81464985D02*
X123229571Y-81655461D01*
X123229571Y-81655461D02*
X123134333Y-81750700D01*
X123134333Y-81750700D02*
X123039095Y-81798319D01*
X123039095Y-81798319D02*
X122848619Y-81798319D01*
X122848619Y-81798319D02*
X122753381Y-81750700D01*
X122753381Y-81750700D02*
X122658143Y-81655461D01*
X122658143Y-81655461D02*
X122610524Y-81464985D01*
X122610524Y-81464985D02*
X122610524Y-81131652D01*
X122610524Y-81131652D02*
X122658143Y-80941176D01*
X122658143Y-80941176D02*
X122753381Y-80845938D01*
X122753381Y-80845938D02*
X122848619Y-80798319D01*
X123562905Y-80798319D02*
X124134333Y-80798319D01*
X123848619Y-81798319D02*
X123848619Y-80798319D01*
X110879095Y-80798319D02*
X111450523Y-80798319D01*
X111164809Y-81798319D02*
X111164809Y-80798319D01*
X111688619Y-80798319D02*
X112355285Y-81798319D01*
X112355285Y-80798319D02*
X111688619Y-81798319D01*
X112736238Y-81798319D02*
X112736238Y-80798319D01*
X112736238Y-80798319D02*
X112974333Y-80798319D01*
X112974333Y-80798319D02*
X113117190Y-80845938D01*
X113117190Y-80845938D02*
X113212428Y-80941176D01*
X113212428Y-80941176D02*
X113260047Y-81036414D01*
X113260047Y-81036414D02*
X113307666Y-81226890D01*
X113307666Y-81226890D02*
X113307666Y-81369747D01*
X113307666Y-81369747D02*
X113260047Y-81560223D01*
X113260047Y-81560223D02*
X113212428Y-81655461D01*
X113212428Y-81655461D02*
X113117190Y-81750700D01*
X113117190Y-81750700D02*
X112974333Y-81798319D01*
X112974333Y-81798319D02*
X112736238Y-81798319D01*
X100774667Y-81798319D02*
X100774667Y-80798319D01*
X100774667Y-80798319D02*
X101155619Y-80798319D01*
X101155619Y-80798319D02*
X101250857Y-80845938D01*
X101250857Y-80845938D02*
X101298476Y-80893557D01*
X101298476Y-80893557D02*
X101346095Y-80988795D01*
X101346095Y-80988795D02*
X101346095Y-81131652D01*
X101346095Y-81131652D02*
X101298476Y-81226890D01*
X101298476Y-81226890D02*
X101250857Y-81274509D01*
X101250857Y-81274509D02*
X101155619Y-81322128D01*
X101155619Y-81322128D02*
X100774667Y-81322128D01*
X101679429Y-80798319D02*
X101917524Y-81798319D01*
X101917524Y-81798319D02*
X102108000Y-81084033D01*
X102108000Y-81084033D02*
X102298476Y-81798319D01*
X102298476Y-81798319D02*
X102536572Y-80798319D01*
X103488952Y-81798319D02*
X103155619Y-81322128D01*
X102917524Y-81798319D02*
X102917524Y-80798319D01*
X102917524Y-80798319D02*
X103298476Y-80798319D01*
X103298476Y-80798319D02*
X103393714Y-80845938D01*
X103393714Y-80845938D02*
X103441333Y-80893557D01*
X103441333Y-80893557D02*
X103488952Y-80988795D01*
X103488952Y-80988795D02*
X103488952Y-81131652D01*
X103488952Y-81131652D02*
X103441333Y-81226890D01*
X103441333Y-81226890D02*
X103393714Y-81274509D01*
X103393714Y-81274509D02*
X103298476Y-81322128D01*
X103298476Y-81322128D02*
X102917524Y-81322128D01*
X116601952Y-81798319D02*
X116268619Y-81322128D01*
X116030524Y-81798319D02*
X116030524Y-80798319D01*
X116030524Y-80798319D02*
X116411476Y-80798319D01*
X116411476Y-80798319D02*
X116506714Y-80845938D01*
X116506714Y-80845938D02*
X116554333Y-80893557D01*
X116554333Y-80893557D02*
X116601952Y-80988795D01*
X116601952Y-80988795D02*
X116601952Y-81131652D01*
X116601952Y-81131652D02*
X116554333Y-81226890D01*
X116554333Y-81226890D02*
X116506714Y-81274509D01*
X116506714Y-81274509D02*
X116411476Y-81322128D01*
X116411476Y-81322128D02*
X116030524Y-81322128D01*
X117030524Y-81274509D02*
X117363857Y-81274509D01*
X117506714Y-81798319D02*
X117030524Y-81798319D01*
X117030524Y-81798319D02*
X117030524Y-80798319D01*
X117030524Y-80798319D02*
X117506714Y-80798319D01*
X117887667Y-81750700D02*
X118030524Y-81798319D01*
X118030524Y-81798319D02*
X118268619Y-81798319D01*
X118268619Y-81798319D02*
X118363857Y-81750700D01*
X118363857Y-81750700D02*
X118411476Y-81703080D01*
X118411476Y-81703080D02*
X118459095Y-81607842D01*
X118459095Y-81607842D02*
X118459095Y-81512604D01*
X118459095Y-81512604D02*
X118411476Y-81417366D01*
X118411476Y-81417366D02*
X118363857Y-81369747D01*
X118363857Y-81369747D02*
X118268619Y-81322128D01*
X118268619Y-81322128D02*
X118078143Y-81274509D01*
X118078143Y-81274509D02*
X117982905Y-81226890D01*
X117982905Y-81226890D02*
X117935286Y-81179271D01*
X117935286Y-81179271D02*
X117887667Y-81084033D01*
X117887667Y-81084033D02*
X117887667Y-80988795D01*
X117887667Y-80988795D02*
X117935286Y-80893557D01*
X117935286Y-80893557D02*
X117982905Y-80845938D01*
X117982905Y-80845938D02*
X118078143Y-80798319D01*
X118078143Y-80798319D02*
X118316238Y-80798319D01*
X118316238Y-80798319D02*
X118459095Y-80845938D01*
X106394333Y-81798319D02*
X106061000Y-81322128D01*
X105822905Y-81798319D02*
X105822905Y-80798319D01*
X105822905Y-80798319D02*
X106203857Y-80798319D01*
X106203857Y-80798319D02*
X106299095Y-80845938D01*
X106299095Y-80845938D02*
X106346714Y-80893557D01*
X106346714Y-80893557D02*
X106394333Y-80988795D01*
X106394333Y-80988795D02*
X106394333Y-81131652D01*
X106394333Y-81131652D02*
X106346714Y-81226890D01*
X106346714Y-81226890D02*
X106299095Y-81274509D01*
X106299095Y-81274509D02*
X106203857Y-81322128D01*
X106203857Y-81322128D02*
X105822905Y-81322128D01*
X106727667Y-80798319D02*
X107394333Y-81798319D01*
X107394333Y-80798319D02*
X106727667Y-81798319D01*
X107775286Y-81798319D02*
X107775286Y-80798319D01*
X107775286Y-80798319D02*
X108013381Y-80798319D01*
X108013381Y-80798319D02*
X108156238Y-80845938D01*
X108156238Y-80845938D02*
X108251476Y-80941176D01*
X108251476Y-80941176D02*
X108299095Y-81036414D01*
X108299095Y-81036414D02*
X108346714Y-81226890D01*
X108346714Y-81226890D02*
X108346714Y-81369747D01*
X108346714Y-81369747D02*
X108299095Y-81560223D01*
X108299095Y-81560223D02*
X108251476Y-81655461D01*
X108251476Y-81655461D02*
X108156238Y-81750700D01*
X108156238Y-81750700D02*
X108013381Y-81798319D01*
X108013381Y-81798319D02*
X107775286Y-81798319D01*
D11*
%TO.C,D4*%
X120016000Y-78176500D02*
X120016000Y-80446500D01*
X120016000Y-80446500D02*
X123901000Y-80446500D01*
X123901000Y-78176500D02*
X120016000Y-78176500D01*
%TO.C,R2*%
X116747936Y-69638500D02*
X118202064Y-69638500D01*
X116747936Y-71458500D02*
X118202064Y-71458500D01*
D10*
%TO.C,U1*%
X114175000Y-66232500D02*
X113600000Y-66232500D01*
X114175000Y-66232500D02*
X114175000Y-71982500D01*
X113600000Y-66232500D02*
X113600000Y-64632500D01*
X103525000Y-66232500D02*
X104175000Y-66232500D01*
X103525000Y-66232500D02*
X103525000Y-71982500D01*
X114175000Y-71982500D02*
X113525000Y-71982500D01*
X103525000Y-71982500D02*
X104175000Y-71982500D01*
D11*
%TO.C,D2*%
X109856000Y-78176500D02*
X109856000Y-80446500D01*
X109856000Y-80446500D02*
X113741000Y-80446500D01*
X113741000Y-78176500D02*
X109856000Y-78176500D01*
%TO.C,R4*%
X112868064Y-77554500D02*
X111413936Y-77554500D01*
X112868064Y-75734500D02*
X111413936Y-75734500D01*
%TO.C,R3*%
X101253936Y-75734500D02*
X102708064Y-75734500D01*
X101253936Y-77554500D02*
X102708064Y-77554500D01*
%TO.C,C1*%
X110781752Y-63457500D02*
X109359248Y-63457500D01*
X110781752Y-61637500D02*
X109359248Y-61637500D01*
%TO.C,J1*%
X96625000Y-65119500D02*
X99855000Y-65119500D01*
X92455000Y-65119500D02*
X94405000Y-65119500D01*
X101775000Y-65839500D02*
X101775000Y-66919500D01*
X101775000Y-66919500D02*
X102205000Y-66919500D01*
X101775000Y-71139500D02*
X101775000Y-72219500D01*
X96625000Y-72939500D02*
X99855000Y-72939500D01*
X92455000Y-72939500D02*
X92455000Y-65119500D01*
X92455000Y-72939500D02*
X94405000Y-72939500D01*
%TO.C,Q2*%
X125935500Y-71147500D02*
X124260500Y-71147500D01*
X125935500Y-71147500D02*
X126585500Y-71147500D01*
X125935500Y-74267500D02*
X125285500Y-74267500D01*
X125935500Y-74267500D02*
X126585500Y-74267500D01*
%TO.C,R1*%
X121377064Y-74633500D02*
X119922936Y-74633500D01*
X121377064Y-72813500D02*
X119922936Y-72813500D01*
%TO.C,R5*%
X107788064Y-77554500D02*
X106333936Y-77554500D01*
X107788064Y-75734500D02*
X106333936Y-75734500D01*
%TO.C,C3*%
X117623000Y-64337748D02*
X117623000Y-65760252D01*
X115803000Y-64337748D02*
X115803000Y-65760252D01*
%TO.C,D1*%
X104263000Y-80446500D02*
X104263000Y-78176500D01*
X104263000Y-78176500D02*
X100378000Y-78176500D01*
X100378000Y-80446500D02*
X104263000Y-80446500D01*
%TO.C,D5*%
X119506000Y-80446500D02*
X119506000Y-78176500D01*
X119506000Y-78176500D02*
X115621000Y-78176500D01*
X115621000Y-80446500D02*
X119506000Y-80446500D01*
%TO.C,R7*%
X116493936Y-75734500D02*
X117948064Y-75734500D01*
X116493936Y-77554500D02*
X117948064Y-77554500D01*
%TO.C,J2*%
X130115000Y-57153500D02*
X131445000Y-57153500D01*
X130115000Y-58483500D02*
X130115000Y-57153500D01*
X130115000Y-59753500D02*
X130115000Y-75053500D01*
X130115000Y-59753500D02*
X132775000Y-59753500D01*
X130115000Y-75053500D02*
X132775000Y-75053500D01*
X132775000Y-59753500D02*
X132775000Y-75053500D01*
%TO.C,R6*%
X123028064Y-77554500D02*
X121573936Y-77554500D01*
X123028064Y-75734500D02*
X121573936Y-75734500D01*
%TO.C,Q1*%
X125935500Y-67083500D02*
X124260500Y-67083500D01*
X125935500Y-67083500D02*
X126585500Y-67083500D01*
X125935500Y-70203500D02*
X125285500Y-70203500D01*
X125935500Y-70203500D02*
X126585500Y-70203500D01*
%TO.C,C2*%
X115803000Y-60210752D02*
X115803000Y-58788248D01*
X117623000Y-60210752D02*
X117623000Y-58788248D01*
%TO.C,U2*%
X119725000Y-58121500D02*
X125735000Y-58121500D01*
X121975000Y-64941500D02*
X125735000Y-64941500D01*
X125735000Y-58121500D02*
X125735000Y-59381500D01*
X125735000Y-64941500D02*
X125735000Y-63681500D01*
%TO.C,D3*%
X104776000Y-78176500D02*
X104776000Y-80446500D01*
X104776000Y-80446500D02*
X108661000Y-80446500D01*
X108661000Y-78176500D02*
X104776000Y-78176500D01*
%TD*%
M02*
