M48
INCH,TZ
T1C0.0150
T2C0.0394
%
G90
G05
T1
X37150Y-27175
X38600Y-30175
X41200Y-24825
X41750Y-24175
X41850Y-26675
X43150Y-32075
X44450Y-22875
X45350Y-29375
X46000Y-28525
X46700Y-24575
X47050Y-26025
X48500Y-25025
X49550Y-30175
X49700Y-22700
X50150Y-27800
X50250Y-26375
X50650Y-30925
T2
X51750Y-23025
X51750Y-24025
X51750Y-25025
X51750Y-26025
X51750Y-27025
X51750Y-28025
X51750Y-29025
T0
M30
